<svg width="40" height="40" fill="none" xmlns="http://www.w3.org/2000/svg"><rect width="40" height="40" rx="20" fill="url(#paint0_radial)"/><path fill-rule="evenodd" clip-rule="evenodd" d="M14.429 33C10.343 33 7 29.657 7 25.571V14.43C7 10.343 10.343 7 14.429 7H25.57C29.657 7 33 10.343 33 14.429V25.57C33 29.657 29.657 33 25.571 33H14.43zm0-24.143c-3.065 0-5.572 2.507-5.572 5.572V25.57c0 3.065 2.507 5.572 5.572 5.572H25.57c3.065 0 5.572-2.507 5.572-5.572V14.43c0-3.065-2.507-5.572-5.572-5.572H14.43zM20 26c-3.343 0-6-2.657-6-6s2.657-6 6-6 6 2.657 6 6-2.657 6-6 6zm0-10.286A4.244 4.244 0 0 0 15.714 20c0 2.4 1.886 4.286 4.286 4.286 2.4 0 4.286-1.886 4.286-4.286 0-2.4-1.886-4.286-4.286-4.286zM26 14c.6 0 1-.4 1-1s-.4-1-1-1-1 .4-1 1 .4 1 1 1z" fill="#fff"/><defs><radialGradient id="paint0_radial" cx="0" cy="0" r="1" gradientUnits="userSpaceOnUse" gradientTransform="rotate(-62.103 38.472 8.454) scale(38.4708)"><stop stop-color="#FFECB3"/><stop offset=".144" stop-color="#FFE082"/><stop offset=".295" stop-color="#FF9800"/><stop offset=".444" stop-color="#FF1744"/><stop offset=".6" stop-color="#C2185B"/><stop offset=".758" stop-color="#8E24AA"/><stop offset=".871" stop-color="#6200EA"/><stop offset="1" stop-color="#304FFE"/></radialGradient></defs></svg>