<svg viewBox="0 0 24 24" xmlns="http://www.w3.org/2000/svg"><radialGradient id="a" cx="-59.347" cy="99.234" gradientTransform="scale(38.4708 -38.4708) rotate(62.103 53.335 98.77)" gradientUnits="userSpaceOnUse" r=".6"><stop offset="0" stop-color="#ffecb3"/><stop offset=".144" stop-color="#ffe082"/><stop offset=".295" stop-color="#ff9800"/><stop offset=".444" stop-color="#ff1744"/><stop offset=".6" stop-color="#c2185b"/><stop offset=".758" stop-color="#8e24aa"/><stop offset=".871" stop-color="#6200ea"/><stop offset="1" stop-color="#304ffe"/></radialGradient><path d="M12 0c6.6 0 12 5.4 12 12s-5.4 12-12 12S0 18.6 0 12 5.4 0 12 0z" fill="url(#a)"/><path clip-rule="evenodd" d="M8.7 19.8c-2.5 0-4.5-2-4.5-4.5V8.7c0-2.5 2-4.5 4.5-4.5h6.7c2.5 0 4.5 2 4.5 4.5v6.7c0 2.5-2 4.5-4.5 4.5H8.7zm0-14.5c-1.8 0-3.3 1.5-3.3 3.3v6.7c0 1.8 1.5 3.3 3.3 3.3h6.7c1.8 0 3.3-1.5 3.3-3.3V8.7c0-1.8-1.5-3.3-3.3-3.3zM12 15.6c-2 0-3.6-1.6-3.6-3.6S10 8.4 12 8.4s3.6 1.6 3.6 3.6-1.6 3.6-3.6 3.6zm0-6.2c-1.4 0-2.6 1.1-2.6 2.5v.1c0 1.4 1.1 2.6 2.6 2.6s2.6-1.1 2.6-2.6-1.2-2.6-2.6-2.6zm3.6-1c.4 0 .6-.2.6-.6s-.2-.6-.6-.6-.6.2-.6.6.2.6.6.6z" fill="#fff" fill-rule="evenodd"/></svg>