<svg enable-background="new 0 0 24 24" viewBox="0 0 24 24" xmlns="http://www.w3.org/2000/svg"><path d="m12 0c6.6 0 12 5.4 12 12 0 6.6-5.4 12-12 12-6.6 0-12-5.4-12-12 0-6.6 5.4-12 12-12z" fill="#ffa233"/><path d="m7.4 12.4c-1.3 1.2-1.3 3.1 0 4.2 1.3 1.2 3.5 1.2 4.8 0l1.9-1.7-1-.8-1.9 1.7c-.8.7-2.1.7-2.9 0s-.8-1.8 0-2.5l1.9-1.7-1-.8zm3.8-3.4 1 .8 1.9-1.7c.8-.7 2.1-.7 2.9 0s.8 1.8 0 2.5l-2 1.8 1 .8 1.9-1.7c1.3-1.2 1.3-3.1 0-4.2-1.3-1.2-3.5-1.2-4.8 0zm-1.4 4.7 1 .8 4.8-4.2-1-.8z" fill="#fff"/></svg>