<svg width="40" height="40" fill="none" xmlns="http://www.w3.org/2000/svg"><rect width="40" height="40" rx="20" fill="#FFA233"/><path d="M12.341 20.678c-2.196 1.952-2.196 5.118 0 7.07 2.197 1.953 5.76 1.953 7.955 0l3.182-2.828-1.59-1.414-3.183 2.828c-1.318 1.172-3.454 1.172-4.772 0-1.319-1.171-1.319-3.07 0-4.242l3.181-2.829-1.59-1.414-3.182 2.829zm6.364-5.657l1.591 1.414 3.182-2.828c1.319-1.172 3.455-1.172 4.773 0 1.319 1.171 1.319 3.07 0 4.242l-3.182 2.829 1.591 1.414 3.182-2.829c2.197-1.952 2.197-5.118 0-7.07-2.196-1.953-5.758-1.953-7.955 0l-3.182 2.828zm-2.386 7.778l1.591 1.414 7.955-7.07-1.591-1.415-7.955 7.071z" fill="#fff"/></svg>