<svg enable-background="new 0 0 24 24" viewBox="0 0 24 24" xmlns="http://www.w3.org/2000/svg"><path d="m12 0c6.6 0 12 5.4 12 12 0 6.6-5.4 12-12 12-6.6 0-12-5.4-12-12 0-6.6 5.4-12 12-12z" fill="#131319"/><path d="m5.9 10.2c-.5 0-1.1.2-1.4.5-.4.3-.6.8-.6 1.3s.2.9.6 1.3c.4.3.9.5 1.4.5s1.1-.2 1.4-.5c.4-.3.6-.8.6-1.3s-.2-.9-.6-1.3c-.3-.3-.8-.5-1.4-.5zm6.1 0c-.5 0-1.1.2-1.4.5-.4.4-.6.8-.6 1.3s.2.9.6 1.3c.4.3.9.5 1.4.5s1.1-.2 1.4-.5c.4-.3.6-.8.6-1.3s-.2-.9-.6-1.3c-.3-.3-.9-.5-1.4-.5zm6.1 0c-.5 0-1.1.2-1.4.5-.4.4-.7.8-.7 1.3s.2.9.6 1.3c.4.3.9.5 1.4.5s1.1-.2 1.4-.5c.4-.3.6-.8.6-1.3s-.2-.9-.6-1.3c-.3-.3-.8-.5-1.3-.5z" fill="#fff"/></svg>