<svg enable-background="new 0 0 24 24" viewBox="0 0 24 24" xmlns="http://www.w3.org/2000/svg"><path clip-rule="evenodd" d="m15.2 4.2h-5.1c-.4 0-.7.3-.7.7v4.4h-4.3c-.4 0-.7.3-.7.7v5c0 .4.3.7.7.7s.7-.3.7-.7v-4.4h4.4c.4 0 .7-.3.7-.7v-4.4h4.5c.4 0 .7-.3.7-.7-.2-.3-.5-.6-.9-.6zm-6.4 14.5h9.3c.4 0 .7-.3.7-.7v-9.4c0-.6-.8-1-1.2-.5l-9.3 9.3c-.5.6-.1 1.3.5 1.3z" fill-rule="evenodd"/><path d="m12 .9c3.1.1 6.6.4 8.8 2.4 2 2.1 2.4 5.8 2.4 8.7 0 3.1-.4 6.6-2.4 8.7-2.1 2-5.8 2.3-8.8 2.4-3.1-.1-6.6-.4-8.8-2.4-2-2.1-2.4-5.8-2.4-8.7 0-3.1.4-6.6 2.4-8.7 2.2-2 5.7-2.4 8.8-2.4z" fill="none" stroke="#000" stroke-miterlimit="10" stroke-width="1.5"/></svg>