<svg width="40" height="40" fill="none" xmlns="http://www.w3.org/2000/svg"><rect width="40" height="40" rx="20" fill="#131319"/><path d="M9.875 17c-.895 0-1.754.316-2.386.879C6.856 18.44 6.5 19.204 6.5 20s.356 1.559.989 2.121c.632.563 1.49.879 2.386.879.895 0 1.754-.316 2.386-.879.633-.562.989-1.325.989-2.121s-.356-1.559-.989-2.121c-.632-.563-1.49-.879-2.386-.879zM20 17c-.895 0-1.753.316-2.387.879-.632.562-.988 1.325-.988 2.121s.356 1.559.988 2.121c.634.563 1.492.879 2.387.879s1.753-.316 2.387-.879c.632-.562.988-1.325.988-2.121s-.356-1.559-.988-2.121C21.753 17.316 20.895 17 20 17zm10.125 0c-.895 0-1.753.316-2.387.879-.632.562-.988 1.325-.988 2.121s.356 1.559.988 2.121c.634.563 1.492.879 2.387.879s1.753-.316 2.386-.879c.633-.562.989-1.325.989-2.121s-.356-1.559-.989-2.121c-.633-.563-1.49-.879-2.386-.879z" fill="#fff"/></svg>