<svg viewBox="0 0 24 24" xmlns="http://www.w3.org/2000/svg"><g fill="none" stroke="#000" stroke-linecap="round" stroke-linejoin="round" stroke-width="1.5"><path d="m22.823 8.611a1.662 1.662 0 0 0 0-2.226c-2.623-2.885-6.792-5.701-10.823-5.634-4.031-.067-8.2 2.749-10.821 5.634a1.663 1.663 0 0 0 0 2.226c2.563 2.824 6.721 5.706 10.821 5.638"/><path d="m15.75 7.5a3.75 3.75 0 1 1 -3.75-3.75 3.75 3.75 0 0 1 3.75 3.75z"/><rect height="7.5" rx="1.5" width="9" x="14.25" y="15.75"/><path d="m18.75 11.25a3 3 0 0 0 -3 3v1.5h6v-1.5a3 3 0 0 0 -3-3z"/><path d="m18.75 19.154a.375.375 0 1 1 -.375.375.375.375 0 0 1 .375-.375"/></g></svg>