<svg width="40" height="40" fill="none" xmlns="http://www.w3.org/2000/svg"><rect width="40" height="40" rx="20" fill="#03A9F4"/><path d="M33.5 13.247c-.992.383-2.06.64-3.185.76 1.144-.593 2.025-1.54 2.438-2.658-1.07.549-2.257.951-3.52 1.164C28.227 11.579 26.789 11 25.196 11c-3.06 0-5.54 2.148-5.54 4.796 0 .375.05.74.145 1.094-4.603-.202-8.686-2.114-11.417-5.015a4.292 4.292 0 0 0-.75 2.415c0 1.665.976 3.13 2.464 3.994a6.277 6.277 0 0 1-2.512-.599v.057c0 2.326 1.91 4.264 4.442 4.704a6.26 6.26 0 0 1-1.456.173 6.72 6.72 0 0 1-1.043-.089c.704 1.902 2.75 3.291 5.173 3.333-1.896 1.284-4.284 2.053-6.88 2.053-.449 0-.888-.022-1.321-.068C8.953 29.205 11.866 30 14.992 30c10.188 0 15.762-7.31 15.762-13.65 0-.208-.008-.415-.019-.619a10.266 10.266 0 0 0 2.765-2.484z" fill="#fff"/></svg>