<svg viewBox="0 0 24 24" overflow="visible" xmlns="http://www.w3.org/2000/svg"><g fill="none" stroke="#000" stroke-linecap="round" stroke-linejoin="round" stroke-width="1.5"><path d="m15.75 4.5h3.75a1.5 1.5 0 0 1 1.5 1.5v15.75a1.5 1.5 0 0 1 -1.5 1.5h-15a1.5 1.5 0 0 1 -1.5-1.5v-15.75a1.5 1.5 0 0 1 1.5-1.5h3.75a3.75 3.75 0 0 1 7.5 0z"/><path d="m12 3.75a.375.375 0 1 1 -.375.375.375.375 0 0 1 .375-.375"/><path d="m6.75 10.5h5.25"/><path d="m15 10.5h2.25"/><path d="m17.25 14.25h-5.25"/><path d="m9 14.25h-2.25"/><path d="m6.75 18h5.25"/><path d="m15 18h2.25"/></g></svg>