<svg fill="none" height="40" width="40" xmlns="http://www.w3.org/2000/svg"><rect fill="#40c351" height="40" rx="20" width="40"/><path d="m8.84 31.552a.291.291 0 0 1 -.281-.368l1.539-5.621a11.363 11.363 0 0 1 -1.457-5.575c.003-6.266 5.102-11.363 11.367-11.363a11.297 11.297 0 0 1 8.04 3.333 11.295 11.295 0 0 1 3.327 8.039c-.002 6.265-5.102 11.363-11.367 11.363-1.86 0-3.7-.46-5.334-1.328l-5.76 1.51a.267.267 0 0 1 -.074.01z" fill="#fff"/><path d="m26.52 13.485a9.143 9.143 0 0 0 -6.509-2.698c-5.077 0-9.207 4.127-9.209 9.201a9.18 9.18 0 0 0 1.408 4.898l.219.348-.93 3.396 3.484-.914.336.2a9.189 9.189 0 0 0 4.686 1.283h.003c5.074 0 9.203-4.129 9.205-9.203a9.146 9.146 0 0 0 -2.694-6.51z" fill="#40c351"/><path clip-rule="evenodd" d="m17.24 15.36c-.207-.461-.425-.47-.623-.479-.162-.007-.346-.006-.53-.006-.185 0-.485.07-.738.346-.254.277-.97.947-.97 2.308s.992 2.677 1.13 2.862c.139.184 1.915 3.068 4.728 4.177 2.337.922 2.813.739 3.32.692.508-.046 1.638-.669 1.869-1.315.23-.646.23-1.2.161-1.315-.07-.116-.253-.185-.53-.323-.276-.14-1.637-.808-1.891-.9-.254-.093-.438-.139-.623.138-.184.277-.715.9-.876 1.085-.162.185-.324.208-.6.07-.276-.14-1.168-.431-2.225-1.374-.823-.733-1.378-1.64-1.54-1.916-.161-.277-.017-.427.122-.565.124-.124.276-.323.415-.485.138-.161.184-.277.276-.461.093-.185.046-.347-.023-.485-.068-.139-.606-1.507-.852-2.054z" fill="#fff" fill-rule="evenodd"/></svg>