<svg viewBox="0 0 24 24" overflow="visible" xmlns="http://www.w3.org/2000/svg" ><g stroke-linecap="round" stroke-width="1.5" stroke="#fff" fill="none" stroke-linejoin="round"><circle cx="14.25" cy="12.75" r="5.25"/><path d="M19.5 6l-1.085-2.171A1.5 1.5 0 0 0 17.073 3h-5.646a1.5 1.5 0 0 0-1.342.829L9 6H2.25a1.5 1.5 0 0 0-1.5 1.5v12a1.5 1.5 0 0 0 1.5 1.5h19.5a1.5 1.5 0 0 0 1.5-1.5v-12a1.5 1.5 0 0 0-1.5-1.5z"/><path d="M4.125 9a.375.375 0 1 1-.375.375c0-.207.168-.375.375-.375M5.25 6V4.5"/></g></svg>