<svg enable-background="new 0 0 24 24" viewBox="0 0 24 24" xmlns="http://www.w3.org/2000/svg" overflow="visible"><g fill="none" stroke="#fff" stroke-linecap="round" stroke-linejoin="round" stroke-width="1.5"><path d="m11.4 21.2-9-9.3c-1.7-1.7-2.2-4.4-1.1-6.6 1.5-2.8 4.9-3.9 7.7-2.5.5.3 1 .6 1.5 1.1l1.5 1.5 1.6-1.6c2.2-2.2 5.8-2.2 8 0 .4.4.8.9 1.1 1.5.8 1.5.8 3.2.2 4.7"/><path d="m15.7 15.7h6c.8 0 1.5.7 1.5 1.5v4.5c0 .8-.7 1.5-1.5 1.5h-6c-.8 0-1.5-.7-1.5-1.5v-4.5c0-.8.7-1.5 1.5-1.5z"/><path d="m18.7 11.2c-1.7 0-3 1.3-3 3v1.5h6v-1.5c0-1.7-1.3-3-3-3zm0 7.9c.2 0 .4.2.4.4s-.2.4-.4.4-.4-.2-.4-.4.2-.4.4-.4"/></g></svg>