<svg enable-background="new 0 0 48 48" viewBox="0 0 48 48" xmlns="http://www.w3.org/2000/svg" overflow="visible"><path d="m42.1 42.1c3.4-3.8 4.9-11.4 4.8-18.3-.2-6.3-.9-13.6-4.9-17.8-4.2-4-11.6-4.7-17.7-4.8-5.8-.1-14.6 1-18.3 4.8-3.6 3.9-4.9 12.5-4.8 18.2.1 6.2.8 13.6 4.8 17.8 4.2 4 11.6 4.7 17.7 4.8 6.9.1 14.9-1 18.4-4.7z" fill="none" stroke="#fff" stroke-width="2"/><path d="m30.4 8.2h-10.2c-.7 0-1.3.6-1.3 1.3v8.9h-9c-.7 0-1.3.6-1.3 1.3v10.3c0 .7.6 1.3 1.3 1.3s1.3-.6 1.3-1.3v-8.9h8.9c.7 0 1.3-.6 1.3-1.3v-8.9h8.9c.7 0 1.3-.6 1.3-1.3.1-.7-.5-1.4-1.2-1.4zm-12.8 29.3h18.8c.8 0 1.4-.7 1.4-1.5v-18.7c0-1.3-1.6-1.9-2.5-1l-18.7 18.8c-.9.9-.3 2.4 1 2.4z" fill="#fff"/></svg>