<svg viewBox="0 0 24 24" xmlns="http://www.w3.org/2000/svg" overflow="visible"><g fill="none" stroke="#fff" stroke-linecap="round" stroke-linejoin="round" stroke-width="2"><rect height="6" rx=".828" ry="0" width="3" x=".75" y="14.25"/><rect height="6" rx=".828" ry="0" width="3" x="20.25" y="14.25"/><path d="m6.75 15.75h1.083a.75.75 0 0 0 .637-.35l1.282-2.059a.75.75 0 0 1 1.322.092l1.894 4.261a.75.75 0 0 0 1.3.133l1.263-1.76a.746.746 0 0 1 .609-.313h1.11"/><path d="m20.25 15.752v-3.752a8.274 8.274 0 0 0 -8.25-8.25 8.274 8.274 0 0 0 -8.25 8.25v3.752"/></g></svg>