<svg viewBox="0 0 24 24" xmlns="http://www.w3.org/2000/svg"><path d="M12 0c6.6 0 12 5.4 12 12s-5.4 12-12 12S0 18.6 0 12 5.4 0 12 0z" fill="#03a9f4"/><path d="M20.1 7.9c-.6.2-1.2.4-1.9.5.7-.4 1.2-.9 1.5-1.6-.6.3-1.4.6-2.1.7-.6-.6-1.5-.9-2.4-.9-1.8 0-3.3 1.3-3.3 2.9 0 .2 0 .4.1.7-2.9-.2-5.3-1.3-7-3.1-.3.5-.4 1-.4 1.5 0 1 .6 1.9 1.5 2.4-.5 0-1-.1-1.5-.4 0 1.4 1.1 2.6 2.7 2.8-.3.1-.6.1-.9.1-.2 0-.4 0-.6-.1.4 1.1 1.6 2 3.1 2-1.1.8-2.6 1.2-4.1 1.2H4c1.4.9 3.1 1.4 5 1.4 6.1 0 9.5-4.4 9.5-8.2v-.4c.6-.4 1.1-.9 1.6-1.5z" fill="#fff"/></svg>