<svg viewBox="0 0 24 24" overflow="visible" xmlns="http://www.w3.org/2000/svg" ><path d="M22.2 2.8l-1.3 3.4L23 8.4c.3.3.3.7 0 1-.1.2-.4.2-.6.2h-3.7L17.5 13c-.2.4-.6.6-1 .4-.2-.1-.4-.3-.5-.5l-1.1-3.8L11.1 8c-.4-.1-.7-.5-.6-1 .1-.2.2-.4.5-.5l3.4-1.3V1.5c0-.4.3-.8.7-.8.2 0 .4.1.6.2L17.8 3l3.4-1.3c.4-.1.9.1 1 .5zm-7.3 6.3L.8 23.2" fill="none" stroke="#fff" stroke-linecap="round" stroke-linejoin="round" stroke-width="2"/><path fill="white" d="M13.5 18.9c.2-.4.4-.7.6-1 .3-.3.5-.4.8-.5s.7-.2 1.1-.2.7.1 1 .2.4.3.5.5c.1.3.2.6.2 1s-.1.9-.3 1.5c-.2.5-.3 1.1-.4 1.5-.2.4-.4.7-.6 1-.3.3-.5.4-.8.5s-.7.2-1.1.2-.7-.1-1-.2-.4-.3-.5-.5c-.1-.3-.2-.6-.2-1s.1-.9.3-1.5.2-1.2.4-1.5zm.9 2.5c-.1.3-.1.5-.1.6 0 .2 0 .3.1.4s.2.1.3.1.3 0 .4-.1.2-.2.3-.4l.3-.6c.1-.3.2-.6.3-1.1.1-.4.2-.8.2-1.1.1-.3.1-.5.1-.6 0-.2 0-.3-.1-.4s-.2-.1-.3-.1-.3 0-.4.1-.2.2-.3.4l-.3.6c-.1.3-.2.6-.3 1.1 0 .5-.1.8-.2 1.1zm6.2-4.2l.2 3.9.9-3.9h1.5l-1.4 6.3H20l-.2-3.9-.9 3.9h-1.5l1.4-6.3z"/></svg>