<svg enable-background="new 0 0 24 24" viewBox="0 0 24 24" xmlns="http://www.w3.org/2000/svg"><path d="m12 0c6.6 0 12 5.4 12 12 0 6.6-5.4 12-12 12-6.6 0-12-5.4-12-12 0-6.6 5.4-12 12-12z" fill="#40c351"/><path d="m5.3 18.9c-.1 0-.2-.1-.2-.2l.9-3.4c-.6-1-.9-2.2-.9-3.3 0-3.8 3.1-6.8 6.8-6.8 1.8 0 3.5.7 4.8 2s2 3 2 4.8c0 3.8-3.1 6.8-6.8 6.8-1.1 0-2.2-.3-3.2-.8z" fill="#fff"/><path d="m15.9 8.1c-1-1-2.4-1.6-3.9-1.6-3 0-5.5 2.5-5.5 5.5 0 1 .3 2.1.8 2.9l.1.2-.6 2 2.2-.5.2.1c.9.5 1.8.8 2.8.8 3 0 5.5-2.5 5.5-5.5 0-1.5-.5-2.9-1.6-3.9z" fill="#40c351"/><path clip-rule="evenodd" d="m10.3 9.2c-.1-.3-.3-.3-.4-.3s-.2 0-.3 0-.3 0-.4.2c-.2.2-.6.6-.6 1.4s.6 1.6.7 1.7 1.1 1.8 2.8 2.5c1.4.6 1.7.4 2 .4s1-.4 1.1-.8.1-.7.1-.8-.2-.1-.3-.2c-.2-.1-1-.5-1.1-.5-.2-.1-.3-.1-.4.1s-.4.5-.5.7c-.1.1-.2.1-.4 0s-.7-.3-1.3-.8c-.5-.4-.8-1-.9-1.1-.1-.2 0-.3.1-.3.1-.1.2-.2.2-.3.1-.1.1-.2.2-.3s0-.2 0-.3c-.1-.1-.4-1-.6-1.3z" fill="#fff" fill-rule="evenodd"/></svg>