<svg viewBox="0 0 24 24" xmlns="http://www.w3.org/2000/svg"><linearGradient id="a" gradientUnits="userSpaceOnUse" x1="3.51" x2="20.49" y1="20.49" y2="3.51"><stop offset="0" stop-color="#7b920a"/><stop offset=".02" stop-color="#7d940a"/><stop offset=".25" stop-color="#92af05"/><stop offset=".49" stop-color="#a1c202"/><stop offset=".74" stop-color="#aacd01"/><stop offset="1" stop-color="#add100"/></linearGradient><circle cx="12" cy="12" fill="url(#a)" r="12"/><path d="M15.12 6.53a.31.31 0 0 0-.24-.12h-.24c-.06.06-.18.12-.18.18a.36.36 0 0 0-.06.24v1.61a.22.22 0 0 1-.06.18.19.19 0 0 1-.12.06h-4.6a4.59 4.59 0 0 0-3.53 1.56A5.39 5.39 0 0 0 4.66 14a5.29 5.29 0 0 0 .78 2.87l.18.18a.45.45 0 0 0 .47-.05.31.31 0 0 0 .12-.24 3.83 3.83 0 0 1 1.26-1.91 3.23 3.23 0 0 1 2-.72h4.72a.06.06 0 0 1 .06.06.22.22 0 0 1 .06.18V16c0 .12 0 .18.06.24l.18.18a.18.18 0 0 0 .24 0 .45.45 0 0 0 .24-.12l3.82-4.6a.44.44 0 0 0 0-.6z" fill="#474c06"/></svg>