<svg viewBox="0 0 24 24" overflow="visible" xmlns="http://www.w3.org/2000/svg"><g stroke-linecap="round" stroke-width="2" stroke="#000" fill="none" stroke-linejoin="round"><rect width="12.75" height="12.75" x="4.5" y="10.5" rx=".353" ry="0"/><path d="M1.454 12a4.646 4.646 0 0 1-.7-2.574 4.85 4.85 0 0 1 5.063-4.81A6.858 6.858 0 0 1 18.827 7.1a3.655 3.655 0 0 1 4.423 3.539 3.35 3.35 0 0 1-2.79 3.47m-11.036.222a.853.853 0 0 0-.789.033.759.759 0 0 0-.385.652v3.718a.76.76 0 0 0 .385.652.85.85 0 0 0 .789.033l3.489-1.647a.979.979 0 0 0 0-1.794z"/></g></svg>