<svg viewBox="0 0 24 24" xmlns="http://www.w3.org/2000/svg" overflow="visible"><g fill="none" stroke="#000" stroke-linecap="round" stroke-linejoin="round" stroke-width="2"><path d="m17.729 23.25 4.671-8.763a.827.827 0 0 0 -.34-1.12l-1.46-.779a.829.829 0 0 0 -1.12.341l-5.5 10.321"/><path d="m20.845 17.408-2.921-1.558"/><path d="m14.25 12v3"/><path d="m15.75 13.5h-3"/><path d="m21.75 6v3"/><path d="m23.25 7.5h-3"/><path d="m.75 5.25h4.5"/><path d="m18.75 5.25h-4.5"/><path d="m9.75 23.25h-7.5a1.5 1.5 0 0 1 -1.5-1.5v-19.5a1.5 1.5 0 0 1 1.5-1.5h15a1.5 1.5 0 0 1 1.5 1.5v3"/><path d="m5.25 23.25v-9"/><path d="m14.25 9.75v-9"/><path d="m5.25 9.75v-9"/><path d="m.75 18.75h4.5"/><path d="m.75 14.25h9"/><path d="m.75 9.75h18"/></g></svg>