<svg enable-background="new 0 0 24 24" viewBox="0 0 24 24" overflow="visible" xmlns="http://www.w3.org/2000/svg"><path d="m14.3 5.3-.8 7.2c-.1.8-.9 1.4-1.7 1.3s-1.4-.9-1.3-1.7c0-.2.1-.4.2-.6z"/><g fill="none" stroke="#000" stroke-linecap="round" stroke-linejoin="round" stroke-width="2"><path d="m12 .8c.5 0 1 0 1.5.1"/><path d="m17.5 2.2c3.4 1.9 5.8 5.6 5.8 9.8 0 1.8-.4 3.4-1.1 4.9" stroke-dasharray="3.1727 4.2303"/><path d="m12 18.9v4.3c-6.2 0-11.2-5-11.2-11.2s5-11.2 11.2-11.2"/></g><path d="m14.7 20.1c.1-.3.3-.6.4-.8.2-.2.4-.3.6-.4s.5-.1.8-.1.5 0 .7.1.3.2.4.4.1.5.1.8-.1.7-.2 1.1-.2.8-.3 1.1-.3.6-.4.8c-.2.2-.4.3-.6.4s-.5.1-.8.1-.5 0-.7-.1-.3-.2-.4-.4-.1-.5-.1-.8.1-.7.2-1.1.2-.8.3-1.1zm.7 1.9c0 .2-.1.4-.1.5s0 .2.1.3c0 0 .1.1.2.1s.2 0 .2-.1c.1 0 .1-.1.2-.3.1-.1.1-.3.2-.5s.1-.5.2-.8.1-.6.2-.8c0-.2.1-.4.1-.5s0-.2-.1-.3c0 0-.1-.1-.2-.1s-.2 0-.2.1c-.1 0-.1.1-.2.3-.1.1-.1.3-.2.5s-.1.5-.2.8c-.1.4-.2.6-.2.8z"/><path d="m21 18.9-.2 1h-1.4l-.2.8h1.3l-.2 1h-1.3l-.5 2h-1.1l1.1-4.7h2.5z"/><path d="m23.9 18.9-.2 1h-1.4l-.2.8h1.3l-.2 1h-1.3l-.5 2h-1.1l1.1-4.7h2.5z"/></svg>