<svg enable-background="new 0 0 24 24" viewBox="0 0 24 24" overflow="visible" xmlns="http://www.w3.org/2000/svg"><path d="m14.3 5.3-.8 7.2c-.1.8-.9 1.4-1.7 1.3s-1.4-.9-1.3-1.7c0-.2.1-.4.2-.6z"/><g fill="none" stroke="#000" stroke-linecap="round" stroke-linejoin="round" stroke-width="2"><path d="m12 .8c.5 0 1 0 1.5.1"/><path d="m17.5 2.2c3.4 1.9 5.8 5.6 5.8 9.8 0 1.8-.3 3.5-1.1 4.9-.9 1.5-4 5.5-4 5.5" stroke-dasharray="3.1727 4.2303"/><path d="m12 18.9v4.3c-6.2 0-11.2-5-11.2-11.2s5-11.2 11.2-11.2"/></g></svg>