<svg viewBox="0 0 24 24" xmlns="http://www.w3.org/2000/svg"><g fill="none" stroke="#000" stroke-linecap="round" stroke-linejoin="round" stroke-width="2"><path d="m7.125 9a.375.375 0 1 1 -.375.375.375.375 0 0 1 .375-.375m-1.612 6.424a7.334 7.334 0 0 0 6.487 3.913c.168 0 .334-.006.5-.017q.207-.014.411-.039"/><path d="m23.239 11.523a11.25 11.25 0 1 0 -11.239 11.727c.168 0 .334 0 .5-.012m1.946-13.578a2.308 2.308 0 0 1 3.913 0m4.88 1.863-10.739 11.715"/><path d="m12.489 23.25v-.978a10.761 10.761 0 0 1 10.761-10.761"/></g></svg>