<svg viewBox="0 0 24 24" xmlns="http://www.w3.org/2000/svg"><g stroke-linecap="round" stroke-width="2" stroke="#000"  fill="none" stroke-linejoin="round"><rect width="3" height="6" x=".75" y="14.25" rx=".828" ry="0"/><rect width="3" height="6" x="20.25" y="14.25" rx=".828" ry="0"/><path d="M6.75 15.75h1.083a.75.75 0 0 0 .637-.35l1.282-2.059a.75.75 0 0 1 1.322.092l1.894 4.261a.75.75 0 0 0 1.3.133l1.263-1.76a.746.746 0 0 1 .609-.313h1.11"/><path d="M20.25 15.752V12A8.274 8.274 0 0 0 12 3.75 8.274 8.274 0 0 0 3.75 12v3.752"/></g></svg>