<svg viewBox="0 0 24 24" xmlns="http://www.w3.org/2000/svg"><path d="m12 23.2c-5 0-9-4-9-9s4-9 9-9 9 4 9 9m-3-6.7 1.9-1.9m-.4-.4.7.8m-8.2-.8v-4.4m2.2 0h-4.4m2.2 14.2-3.8-4.2" fill="none" stroke="#000" stroke-linecap="round" stroke-linejoin="round" stroke-width="2"/><path stroke="none" d="m20.8 17-.3 1.4h-2.7l-.4 1.2c.2-.2.4-.3.7-.4.2-.1.5-.1.8-.1.6 0 1 .2 1.2.5.2.4.2.9.1 1.7-.1.5-.2.9-.4 1.2l-.6.9c-.2.2-.5.4-.8.5-.4 0-.8.1-1.3.1-.8 0-1.4-.2-1.7-.5s-.4-.8-.2-1.5l.1-.2h1.7v.2c-.1.3-.1.6 0 .7s.2.2.3.2h.2c.1 0 .1-.1.2-.2s.1-.3.2-.5.1-.5.2-.8c.1-.4.1-.7.1-.8-.1-.2-.2-.2-.3-.2-.2 0-.3 0-.4.1s-.2.2-.2.5h-1.7l1.1-3.9h4.1z"/></svg>