<svg viewBox="0 0 24 24" overflow="visible" xmlns="http://www.w3.org/2000/svg"><path d="M14.3 5.3l-.8 7.2c-.1.8-.9 1.4-1.7 1.3s-1.4-.9-1.3-1.7c0-.2.1-.4.2-.6z"/><g fill="none" stroke="#000" stroke-linecap="round" stroke-linejoin="round" stroke-width="2"><path d="M12 .8c.5 0 1 0 1.5.1"/><path d="M17.5 2.2c3.4 1.9 5.8 5.6 5.8 9.8 0 1.8-.4 3.4-1.1 4.9" stroke-dasharray="3.1727 4.2303"/><path d="M12 18.9v4.3C5.8 23.2.8 18.2.8 12S5.8.8 12 .8"/></g><path d="M14.4 20c.1-.3.3-.6.4-.8.2-.2.4-.3.6-.4s.5-.1.8-.1.5 0 .7.1.3.2.4.4.1.5.1.8-.1.7-.2 1.2l-.3 1.2c-.1.3-.3.6-.4.8-.2.2-.4.3-.6.4s-.5.1-.8.1-.5 0-.7-.1c-.2-.2-.4-.4-.4-.6-.1-.2-.1-.5-.1-.8s.1-.7.2-1.2c.1-.3.2-.7.3-1zm.7 1.9c0 .2-.1.4-.1.5s0 .2.1.3c0 0 .1.1.2.1s.2 0 .2-.1c.1 0 .1-.1.2-.3.1-.1.1-.3.2-.5s.1-.5.2-.8.1-.6.2-.8c0-.2.1-.4.1-.5s0-.2-.1-.3-.1-.1-.2-.1-.2 0-.2.1c-.1 0-.1.1-.2.3-.1.1-.1.3-.2.5s-.1.5-.2.8-.2.6-.2.8zm4.2-3.2v3l.7-3h1l-1 4.8h-1.2l-.1-3-.7 3h-1l1.1-4.8z"/></svg>