<svg viewBox="0 0 24 24" xmlns="http://www.w3.org/2000/svg"><g fill="none" stroke-linecap="round" stroke-linejoin="round" stroke-width="2" stroke="#000"><path d="M15 11.25l8.25.01m-4.49-4.51l-.01 4.5M15 18.75l8.19.01m-4.44 4.49v-4.5m-3.741-12L15 23.25h6.75a1.493 1.493 0 0 0 1.5-1.491v-13.5a1.5 1.5 0 0 0-1.491-1.509zm-6.029 4.5H.75m4.51-4.5l-.01 4.5M9 18.75H.77m4.48 4.48v-4.48M9 6.75v16.5H2.241a1.493 1.493 0 0 1-1.491-1.5V8.25a1.5 1.5 0 0 1 1.509-1.491z"/><path d="M12 23.25v-.75m0-2.98v-.75m0-3v-.75m-.02-3v-.75m.02-3v-.75" stroke-dasharray="1.5 2"/><path d="M9 .75l3.022 3.767L15 .75z"/></g></svg>