<svg viewBox="0 0 24 24" xmlns="http://www.w3.org/2000/svg"><g fill="none" stroke="#000" stroke-linecap="round" stroke-linejoin="round" stroke-width="2"><path d="m15 11.25 8.25.01m-4.49-4.51-.01 4.5m-3.75 7.5 8.19.01m-4.44 4.49v-4.5m-3.741-12-.009 16.5h6.75a1.493 1.493 0 0 0 1.5-1.491v-13.5a1.5 1.5 0 0 0 -1.491-1.509zm-6.029 4.5h-8.23m4.51-4.5-.01 4.5m3.75 7.5h-8.23m4.48 4.48v-4.48m3.75-12v16.5h-6.759a1.493 1.493 0 0 1 -1.491-1.5v-13.5a1.5 1.5 0 0 1 1.509-1.491z"/><path d="m12 23.25v-.75m0-2.98v-.75m0-3v-.75m-.02-3v-.75m.02-3v-.75" stroke-dasharray="1.5 2"/><path d="m9 .75 3.022 3.767 2.978-3.767z"/></g></svg>