<svg enable-background="new 0 0 24 24" viewBox="0 0 24 24" overflow="visible" xmlns="http://www.w3.org/2000/svg"><path d="m22.2 2.8-1.3 3.4 2.1 2.2c.3.3.3.7 0 1-.1.2-.4.2-.6.2h-3.7l-1.2 3.4c-.2.4-.6.6-1 .4-.2-.1-.4-.3-.5-.5l-1.1-3.8-3.8-1.1c-.4-.1-.7-.5-.6-1 .1-.2.2-.4.5-.5l3.4-1.3v-3.7c0-.4.3-.8.7-.8.2 0 .4.1.6.2l2.1 2.1 3.4-1.3c.4-.1.9.1 1 .5zm-7.3 6.3-14.1 14.1" fill="none" stroke="#000" stroke-linecap="round" stroke-linejoin="round" stroke-width="2"/><path d="m10.7 19c.2-.4.4-.7.6-1 .3-.3.5-.4.8-.5s.7-.2 1.1-.2.7.1 1 .2.4.3.5.5c.1.3.2.6.2 1s-.1.9-.3 1.5c-.2.5-.3 1.1-.4 1.5-.2.4-.4.7-.6 1-.3.3-.5.4-.8.5s-.7.2-1.1.2-.7-.1-1-.2-.4-.3-.5-.5c-.1-.3-.2-.6-.2-1s.1-.9.3-1.5c0-.6.2-1.1.4-1.5zm1 2.5c-.1.3-.1.5-.1.6 0 .2 0 .3.1.4s.2.1.3.1.3 0 .4-.1.2-.2.3-.4.2-.4.3-.6.2-.6.3-1.1.2-.8.2-1.1c.1-.3.1-.5.1-.6 0-.2 0-.3-.1-.4s-.2-.1-.3-.1-.3 0-.4.1-.2.2-.3.4-.2.4-.3.6c-.1.3-.2.6-.3 1.1s-.2.9-.2 1.1z"/><path d="m19.6 17.4-.3 1.3h-2l-.3 1.1h2l-.3 1.2h-2l-.6 2.6h-1.6l1.4-6.2z"/><path d="m23.7 17.4-.3 1.3h-2l-.3 1.1h2l-.3 1.2h-2l-.5 2.6h-1.6l1.4-6.2z"/></svg>